<svg xmlns="http://www.w3.org/2000/svg" style="display:none">
  <symbol id="linkedin" viewBox="0 0 24 24">
    <path d="M19 0H5C2.8 0 1 1.8 1 4v16c0 2.2 1.8 4 4 4h14c2.2 0 4-1.8 4-4V4c0-2.2-1.8-4-4-4zM8 19H5V9h3v10zM6.5 7.7c-1 0-1.8-.8-1.8-1.7S5.5 4.3 6.5 4.3s1.8.8 1.8 1.7-.8 1.7-1.8 1.7zM20 19h-3v-5.6c0-1.3 0-3.1-1.9-3.1-1.9 0-2.2 1.5-2.2 3V19H10V9h2.9v1.4h.1c.4-.8 1.4-1.6 2.8-1.6 3 0 3.2 2 3.2 4.6V19z"/>
  </symbol>

  <symbol id="instagram" viewBox="0 0 24 24">
    <path d="M12 2.163c3.204 0 3.584.012 4.85.07 1.366.062 2.633.35 3.608 1.325.975.975 1.262 2.242 1.324 3.608.058 1.266.069 1.646.069 4.85s-.011 3.584-.069 4.85c-.062 1.366-.35 2.633-1.324 3.608-.975.975-2.242 1.262-3.608 1.324-1.266.058-1.646.069-4.85.069s-3.584-.014-4.85-.072c-1.277-.058-2.414-.356-3.373-1.316-.96-.96-2.096-1.258-3.373-1.316C15.668.014 15.259 0 12 0zm0 5.838a6.162 6.162 0 100 12.324 6.162 6.162 0 000-12.324zm0 10.162a3.999 3.999 0 110-7.998 3.999 3.999 0 010 7.998zm6.406-11.845a1.44 1.44 0 11-2.881 0 1.44 1.44 0 012.881 0z"/>
  </symbol>
</svg>
